<svg xmlns="http://www.w3.org/2000/svg" width="64" height="64" viewBox="0 0 64 64" fill="none">
  <defs>
    <linearGradient id="rb-f" x1="10" y1="10" x2="54" y2="54" gradientUnits="userSpaceOnUse">
      <stop stop-color="#3B82F6"/>
      <stop offset="1" stop-color="#D4A72C"/>
    </linearGradient>
  </defs>
  <rect x="6" y="6" width="52" height="52" rx="16" fill="#0B1220"/>
  <rect x="6" y="6" width="52" height="52" rx="16" stroke="url(#rb-f)" stroke-width="3"/>
  <path d="M20 46V18h13c6 0 10 3 10 8c0 3-1 5-4 6c4 1 6 4 6 8c0 6-4 10-11 10H20Zm8-16h5c2 0 3-1 3-3c0-2-1-3-3-3h-5v6Zm0 12h6c2 0 4-1 4-3c0-2-2-3-4-3h-6v6Z" fill="url(#rb-f)"/>
</svg>
